#!OML:ASF H:\Dans Jumps\Project 1\Capture day 1\Session 1\subject.ASF
:FULLY-SPECIFIED
:DEGREES
554
root 0.143666 17.7781 -6.34197 7.49565 -0.394738 -1.21289
lowerback -1.11952 0.353619 -0.135222
upperback 4.32705 0.415133 1.41368
thorax 5.08421 0.168019 1.56121
lowerneck -11.2664 0.472156 -1.57599
upperneck 37.8346 0.766305 1.04673
head 15.0394 0.249984 0.843796
rclavicle 4.96962e-016 1.98785e-015
rhumerus -28.9789 -28.6081 -67.7156
rradius 21.3879
rwrist 43.8962
rhand -17.0124 -26.2524
rfingers 7.12502
rthumb 9.22335 -56.0306
lclavicle 4.96962e-016 1.98785e-015
lhumerus -22.3446 16.8512 72.0372
lradius 12.927
lwrist -12.8436
lhand -25.1869 -2.18551
lfingers 7.12502
lthumb 1.33104 27.7901
rfemur -16.2132 -2.35004 20.2675
rtibia 21.3619
rfoot -12.0897 -2.66395
rtoes 15.6511
lfemur -14.1852 6.43589 -19.1094
ltibia 17.5896
lfoot -8.927 7.5203
ltoes 8.426
555
root 0.143556 17.7781 -6.34465 7.49174 -0.393846 -1.21664
lowerback -1.13058 0.356696 -0.123524
upperback 4.32365 0.418675 1.41582
thorax 5.08693 0.170208 1.55714
lowerneck -11.2718 0.470836 -1.56934
upperneck 37.8509 0.759286 1.05566
head 15.0488 0.249087 0.845514
rclavicle -9.93923e-016 -1.03368e-014
rhumerus -28.4321 -28.2708 -68.3127
rradius 21.541
rwrist 43.5351
rhand -17.0911 -26.1882
rfingers 7.12502
rthumb 9.14739 -55.9698
lclavicle -9.93923e-016 -1.03368e-014
lhumerus -21.8507 16.5928 72.5841
lradius 13.0042
lwrist -12.5196
lhand -25.2909 -2.37851
lfingers 7.12502
lthumb 1.23058 27.5977
rfemur -16.2177 -2.35403 20.2725
rtibia 21.3599
rfoot -12.0787 -2.66545
rtoes 15.62
lfemur -14.1922 6.4386 -19.1051
ltibia 17.5918
lfoot -8.91668 7.51542
ltoes 8.43573
556
root 0.143426 17.7781 -6.3474 7.48699 -0.393272 -1.22103
lowerback -1.14306 0.359899 -0.112872
upperback 4.31993 0.422386 1.41868
thorax 5.0901 0.17242 1.55441
lowerneck -11.2819 0.470177 -1.55866
upperneck 37.8707 0.754016 1.05989
head 15.061 0.248848 0.844888
rclavicle 2.18663e-015 -1.17283e-014
rhumerus -27.8664 -27.8966 -68.9382
rradius 21.702
rwrist 43.1587
rhand -17.1695 -26.126
rfingers 7.12502
rthumb 9.07175 -55.9109
lclavicle 2.18663e-015 -1.17283e-014
lhumerus -21.3363 16.3009 73.1652
lradius 13.0895
lwrist -12.1967
lhand -25.3763 -2.50989
lfingers 7.12502
lthumb 1.14812 27.4668
rfemur -16.2223 -2.35644 20.2782
rtibia 21.3583
rfoot -12.0672 -2.66711
rtoes 15.597
lfemur -14.2006 6.4417 -19.1003
ltibia 17.5969
lfoot -8.90622 7.51227
ltoes 8.44114
557
root 0.143272 17.778 -6.35044 7.48037 -0.392145 -1.23027
lowerback -1.15148 0.363609 -0.097316
upperback 4.31344 0.426601 1.42246
thorax 5.08806 0.175099 1.54986
lowerneck -11.2799 0.467926 -1.55287
upperneck 37.886 0.746022 1.06801
head 15.0681 0.247333 0.84621
rclavicle 3.97569e-016 9.93923e-016
rhumerus -27.2921 -27.4865 -69.5858
rradius 21.8743
rwrist 42.7716
rhand -17.234 -26.0854
rfingers 7.12502
rthumb 9.00959 -55.873
lclavicle 3.97569e-016 9.93923e-016
lhumerus -20.8094 15.9552 73.7802
lradius 13.1887
lwrist -11.8461
lhand -25.4469 -2.61079
lfingers 7.12502
lthumb 1.07997 27.3662
rfemur -16.2261 -2.35442 20.2893
rtibia 21.3569
rfoot -12.0541 -2.67207
rtoes 15.5951
lfemur -14.2103 6.44414 -19.0899
ltibia 17.6051
lfoot -8.89465 7.51059
ltoes 8.4404
558
root 0.143099 17.7778 -6.35368 7.47186 -0.389411 -1.23839
lowerback -1.15893 0.366528 -0.083536
upperback 4.30663 0.42984 1.42618
thorax 5.08517 0.177227 1.54616
lowerneck -11.2641 0.463048 -1.55707
upperneck 37.8907 0.734596 1.08137
head 15.0668 0.243729 0.850758
rclavicle -8.05078e-015 -2.10712e-014
rhumerus -26.7066 -27.0225 -70.2597
rradius 22.0571
rwrist 42.3569
rhand -17.3112 -26.0508
rfingers 7.12502
rthumb 8.93503 -55.8416
lclavicle -8.05078e-015 -2.10712e-014
lhumerus -20.2706 15.5624 74.4263
lradius 13.3033
lwrist -11.4705
lhand -25.5097 -2.682
lfingers 7.12502
lthumb 1.01925 27.2953
rfemur -16.2293 -2.3513 20.2992
rtibia 21.3565
rfoot -12.0411 -2.67799
rtoes 15.6157
lfemur -14.2202 6.44491 -19.0805
ltibia 17.6154
lfoot -8.88375 7.5093
ltoes 8.43384
559
root 0.142944 17.7776 -6.35721 7.46123 -0.385543 -1.24564
lowerback -1.16257 0.367614 -0.071614
upperback 4.29819 0.43074 1.43
thorax 5.07842 0.17814 1.54343
lowerneck -11.2331 0.456982 -1.57282
upperneck 37.8844 0.721196 1.10276
head 15.0564 0.238787 0.860191
rclavicle -1.16289e-014 -1.86858e-014
rhumerus -26.1139 -26.5227 -70.949
rradius 22.2433
rwrist 41.9404
rhand -17.377 -26.0228
rfingers 7.12502
rthumb 8.87157 -55.8163
lclavicle -1.16289e-014 -1.86858e-014
lhumerus -19.7314 15.1105 75.1012
lradius 13.4448
lwrist -11.057
lhand -25.5513 -2.74424
lfingers 7.12502
lthumb 0.979096 27.2333
rfemur -16.2317 -2.34611 20.3081
rtibia 21.358
rfoot -12.0284 -2.68767
rtoes 15.6411
lfemur -14.2293 6.44417 -19.0718
ltibia 17.627
lfoot -8.87405 7.50721
ltoes 8.42584
560
root 0.142721 17.7774 -6.36087 7.44838 -0.37979 -1.25193
lowerback -1.16399 0.36729 -0.0612201
upperback 4.28989 0.429863 1.43307
thorax 5.0706 0.178129 1.54067
lowerneck -11.195 0.450096 -1.59442
upperneck 37.8713 0.706594 1.12792
head 15.041 0.23304 0.871926
rclavicle 1.49089e-015 3.97569e-015
rhumerus -25.5148 -25.981 -71.6559
rradius 22.4387
rwrist 41.5105
rhand -17.4249 -26.0141
rfingers 7.12502
rthumb 8.82537 -55.8095
lclavicle 1.49089e-015 3.97569e-015
lhumerus -19.1892 14.61 75.7979
lradius 13.6092
lwrist -10.6265
lhand -25.5463 -2.73266
lfingers 7.12502
lthumb 0.983946 27.2448
rfemur -16.2329 -2.33798 20.3158
rtibia 21.362
rfoot -12.0182 -2.70171
rtoes 15.6725
lfemur -14.2363 6.44189 -19.0633
ltibia 17.6384
lfoot -8.86499 7.50384
ltoes 8.42426
561
root 0.142498 17.7772 -6.36457 7.43356 -0.372824 -1.25173
lowerback -1.16507 0.364413 -0.0576274
upperback 4.28156 0.425947 1.43366
thorax 5.06261 0.176389 1.53897
lowerneck -11.1605 0.444667 -1.61399
upperneck 37.8614 0.694984 1.14947
head 15.028 0.228306 0.882304
rclavicle 5.96354e-016 -4.37326e-015
rhumerus -24.9114 -25.403 -72.3763
rradius 22.6417
rwrist 41.0747
rhand -17.4698 -25.9988
rfingers 7.12502
rthumb 8.78202 -55.7961
lclavicle 5.96354e-016 -4.37326e-015
lhumerus -18.6502 14.048 76.5146
lradius 13.7932
lwrist -10.1566
lhand -25.5127 -2.70722
lfingers 7.12502
lthumb 1.01638 27.2701
rfemur -16.2331 -2.33197 20.3164
rtibia 21.3683
rfoot -12.0091 -2.71751
rtoes 15.6726
lfemur -14.2403 6.43791 -19.0616
ltibia 17.6483
lfoot -8.85685 7.49869
ltoes 8.42624
562
root 0.142239 17.7769 -6.36827 7.4177 -0.366285 -1.25074
lowerback -1.1664 0.359215 -0.0563511
upperback 4.27341 0.419024 1.43406
thorax 5.05502 0.173061 1.53821
lowerneck -11.1413 0.442973 -1.62544
upperneck 37.8624 0.690718 1.1611
head 15.0239 0.226385 0.888433
rclavicle -1.68967e-015 -3.97569e-015
rhumerus -24.299 -24.8119 -73.1013
rradius 22.8372
rwrist 40.6615
rhand -17.497 -25.9802
rfingers 7.12502
rthumb 8.75576 -55.7786
lclavicle -1.68967e-015 -3.97569e-015
lhumerus -18.1177 13.4215 77.2486
lradius 14.0009
lwrist -9.64955
lhand -25.4885 -2.68804
lfingers 7.12502
lthumb 1.03977 27.2892
rfemur -16.2329 -2.32656 20.3162
rtibia 21.3759
rfoot -12.001 -2.73352
rtoes 15.6427
lfemur -14.2419 6.43481 -19.0605
ltibia 17.6565
lfoot -8.84717 7.49329
ltoes 8.43351
563
root 0.141966 17.7766 -6.37187 7.39972 -0.35972 -1.24635
lowerback -1.16841 0.352093 -0.0591952
upperback 4.26553 0.409734 1.43316
thorax 5.04814 0.168415 1.53831
lowerneck -11.139 0.443588 -1.62525
upperneck 37.8782 0.691897 1.15974
head 15.0311 0.226541 0.88818
rclavicle 2.08724e-015 -2.18663e-015
rhumerus -23.692 -24.1497 -73.8417
rradius 23.0574
rwrist 40.2154
rhand -17.5232 -25.96
rfingers 7.12502
rthumb 8.73044 -55.7595
lclavicle 2.08724e-015 -2.18663e-015
lhumerus -17.588 12.7431 77.9932
lradius 14.217
lwrist -9.11112
lhand -25.4492 -2.69977
lfingers 7.12502
lthumb 1.07775 27.2773
rfemur -16.2297 -2.3229 20.312
rtibia 21.3834
rfoot -11.9932 -2.74755
rtoes 15.6082
lfemur -14.2401 6.43234 -19.0631
ltibia 17.6636
lfoot -8.83724 7.48731
ltoes 8.43632
564
root 0.141701 17.7764 -6.37527 7.38037 -0.354762 -1.24208
lowerback -1.17258 0.343656 -0.0634614
upperback 4.2589 0.398685 1.4328
thorax 5.04385 0.162808 1.5397
lowerneck -11.1528 0.445783 -1.61599
upperneck 37.9058 0.698339 1.14482
head 15.0479 0.228282 0.881678
rclavicle 1.09332e-015 -5.96354e-016
rhumerus -23.0791 -23.4838 -74.5788
rradius 23.2688
rwrist 39.7988
rhand -17.5612 -25.9061
rfingers 7.12502
rthumb 8.69377 -55.707
lclavicle 1.09332e-015 -5.96354e-016
lhumerus -17.0648 11.9902 78.7529
lradius 14.4521
lwrist -8.51208
lhand -25.3699 -2.65469
lfingers 7.12502
lthumb 1.1543 27.3219
rfemur -16.2238 -2.32209 20.3076
rtibia 21.3895
rfoot -11.985 -2.7576
rtoes 15.5626
lfemur -14.2359 6.43277 -19.0659
ltibia 17.671
lfoot -8.82864 7.48235
ltoes 8.4359
